%TF.GenerationSoftware,KiCad,Pcbnew,(5.1.6)-1*%
%TF.CreationDate,2020-09-23T17:10:44+08:00*%
%TF.ProjectId,Power Meter,506f7765-7220-44d6-9574-65722e6b6963,rev?*%
%TF.SameCoordinates,Original*%
%TF.FileFunction,Soldermask,Top*%
%TF.FilePolarity,Negative*%
%FSLAX46Y46*%
G04 Gerber Fmt 4.6, Leading zero omitted, Abs format (unit mm)*
G04 Created by KiCad (PCBNEW (5.1.6)-1) date 2020-09-23 17:10:44*
%MOMM*%
%LPD*%
G01*
G04 APERTURE LIST*
%ADD10C,3.300000*%
%ADD11O,1.700000X1.700000*%
%ADD12R,1.700000X1.700000*%
%ADD13R,1.600000X1.600000*%
%ADD14C,1.600000*%
%ADD15C,3.350000*%
%ADD16C,2.400000*%
%ADD17R,2.700000X2.700000*%
%ADD18C,2.700000*%
%ADD19R,1.000000X0.900000*%
%ADD20C,1.700200*%
G04 APERTURE END LIST*
D10*
%TO.C,M3*%
X187960000Y-80010000D03*
%TD*%
%TO.C,M3*%
X187960000Y-105410000D03*
%TD*%
%TO.C,M3*%
X130810000Y-105410000D03*
%TD*%
%TO.C,M3*%
X130810000Y-80010000D03*
%TD*%
D11*
%TO.C,A1*%
X162845000Y-110490000D03*
X147605000Y-110490000D03*
X162845000Y-74930000D03*
X147605000Y-107950000D03*
X162845000Y-77470000D03*
X147605000Y-105410000D03*
X162845000Y-80010000D03*
X147605000Y-102870000D03*
X162845000Y-82550000D03*
X147605000Y-100330000D03*
X162845000Y-85090000D03*
X147605000Y-97790000D03*
X162845000Y-87630000D03*
X147605000Y-95250000D03*
X162845000Y-90170000D03*
X147605000Y-92710000D03*
X162845000Y-92710000D03*
X147605000Y-90170000D03*
X162845000Y-95250000D03*
X147605000Y-87630000D03*
X162845000Y-97790000D03*
X147605000Y-85090000D03*
X162845000Y-100330000D03*
X147605000Y-82550000D03*
X162845000Y-102870000D03*
X147605000Y-80010000D03*
X162845000Y-105410000D03*
X147605000Y-77470000D03*
X162845000Y-107950000D03*
D12*
X147605000Y-74930000D03*
%TD*%
%TO.C,D1*%
G36*
G01*
X143028750Y-91235000D02*
X143991250Y-91235000D01*
G75*
G02*
X144260000Y-91503750I0J-268750D01*
G01*
X144260000Y-92041250D01*
G75*
G02*
X143991250Y-92310000I-268750J0D01*
G01*
X143028750Y-92310000D01*
G75*
G02*
X142760000Y-92041250I0J268750D01*
G01*
X142760000Y-91503750D01*
G75*
G02*
X143028750Y-91235000I268750J0D01*
G01*
G37*
G36*
G01*
X143028750Y-93110000D02*
X143991250Y-93110000D01*
G75*
G02*
X144260000Y-93378750I0J-268750D01*
G01*
X144260000Y-93916250D01*
G75*
G02*
X143991250Y-94185000I-268750J0D01*
G01*
X143028750Y-94185000D01*
G75*
G02*
X142760000Y-93916250I0J268750D01*
G01*
X142760000Y-93378750D01*
G75*
G02*
X143028750Y-93110000I268750J0D01*
G01*
G37*
%TD*%
D13*
%TO.C,J1*%
X133350000Y-96520000D03*
D14*
X133350000Y-94488000D03*
X133350000Y-92456000D03*
X133350000Y-90424000D03*
X135130000Y-95504000D03*
X135130000Y-93472000D03*
X135130000Y-91440000D03*
X135130000Y-89408000D03*
D15*
X130810000Y-99310000D03*
X130810000Y-86610000D03*
D16*
X134240000Y-84830000D03*
X134240000Y-101090000D03*
D14*
X139950000Y-99820000D03*
X139950000Y-97530000D03*
X139950000Y-88390000D03*
X139950000Y-86100000D03*
%TD*%
D17*
%TO.C,J2*%
X189230000Y-97790000D03*
D18*
X189230000Y-92710000D03*
X189230000Y-87630000D03*
%TD*%
D19*
%TO.C,Q1*%
X178070000Y-94300000D03*
X178070000Y-96200000D03*
X180070000Y-95250000D03*
%TD*%
%TO.C,Q2*%
X180070000Y-90170000D03*
X178070000Y-91120000D03*
X178070000Y-89220000D03*
%TD*%
%TO.C,R1*%
G36*
G01*
X165610000Y-84301250D02*
X165610000Y-83338750D01*
G75*
G02*
X165878750Y-83070000I268750J0D01*
G01*
X166416250Y-83070000D01*
G75*
G02*
X166685000Y-83338750I0J-268750D01*
G01*
X166685000Y-84301250D01*
G75*
G02*
X166416250Y-84570000I-268750J0D01*
G01*
X165878750Y-84570000D01*
G75*
G02*
X165610000Y-84301250I0J268750D01*
G01*
G37*
G36*
G01*
X167485000Y-84301250D02*
X167485000Y-83338750D01*
G75*
G02*
X167753750Y-83070000I268750J0D01*
G01*
X168291250Y-83070000D01*
G75*
G02*
X168560000Y-83338750I0J-268750D01*
G01*
X168560000Y-84301250D01*
G75*
G02*
X168291250Y-84570000I-268750J0D01*
G01*
X167753750Y-84570000D01*
G75*
G02*
X167485000Y-84301250I0J268750D01*
G01*
G37*
%TD*%
%TO.C,R2*%
G36*
G01*
X171850000Y-84301250D02*
X171850000Y-83338750D01*
G75*
G02*
X172118750Y-83070000I268750J0D01*
G01*
X172656250Y-83070000D01*
G75*
G02*
X172925000Y-83338750I0J-268750D01*
G01*
X172925000Y-84301250D01*
G75*
G02*
X172656250Y-84570000I-268750J0D01*
G01*
X172118750Y-84570000D01*
G75*
G02*
X171850000Y-84301250I0J268750D01*
G01*
G37*
G36*
G01*
X169975000Y-84301250D02*
X169975000Y-83338750D01*
G75*
G02*
X170243750Y-83070000I268750J0D01*
G01*
X170781250Y-83070000D01*
G75*
G02*
X171050000Y-83338750I0J-268750D01*
G01*
X171050000Y-84301250D01*
G75*
G02*
X170781250Y-84570000I-268750J0D01*
G01*
X170243750Y-84570000D01*
G75*
G02*
X169975000Y-84301250I0J268750D01*
G01*
G37*
%TD*%
%TO.C,R3*%
G36*
G01*
X174723000Y-84301250D02*
X174723000Y-83338750D01*
G75*
G02*
X174991750Y-83070000I268750J0D01*
G01*
X175529250Y-83070000D01*
G75*
G02*
X175798000Y-83338750I0J-268750D01*
G01*
X175798000Y-84301250D01*
G75*
G02*
X175529250Y-84570000I-268750J0D01*
G01*
X174991750Y-84570000D01*
G75*
G02*
X174723000Y-84301250I0J268750D01*
G01*
G37*
G36*
G01*
X176598000Y-84301250D02*
X176598000Y-83338750D01*
G75*
G02*
X176866750Y-83070000I268750J0D01*
G01*
X177404250Y-83070000D01*
G75*
G02*
X177673000Y-83338750I0J-268750D01*
G01*
X177673000Y-84301250D01*
G75*
G02*
X177404250Y-84570000I-268750J0D01*
G01*
X176866750Y-84570000D01*
G75*
G02*
X176598000Y-84301250I0J268750D01*
G01*
G37*
%TD*%
%TO.C,R4*%
G36*
G01*
X167485000Y-102081250D02*
X167485000Y-101118750D01*
G75*
G02*
X167753750Y-100850000I268750J0D01*
G01*
X168291250Y-100850000D01*
G75*
G02*
X168560000Y-101118750I0J-268750D01*
G01*
X168560000Y-102081250D01*
G75*
G02*
X168291250Y-102350000I-268750J0D01*
G01*
X167753750Y-102350000D01*
G75*
G02*
X167485000Y-102081250I0J268750D01*
G01*
G37*
G36*
G01*
X165610000Y-102081250D02*
X165610000Y-101118750D01*
G75*
G02*
X165878750Y-100850000I268750J0D01*
G01*
X166416250Y-100850000D01*
G75*
G02*
X166685000Y-101118750I0J-268750D01*
G01*
X166685000Y-102081250D01*
G75*
G02*
X166416250Y-102350000I-268750J0D01*
G01*
X165878750Y-102350000D01*
G75*
G02*
X165610000Y-102081250I0J268750D01*
G01*
G37*
%TD*%
%TO.C,R5*%
G36*
G01*
X171850000Y-102081250D02*
X171850000Y-101118750D01*
G75*
G02*
X172118750Y-100850000I268750J0D01*
G01*
X172656250Y-100850000D01*
G75*
G02*
X172925000Y-101118750I0J-268750D01*
G01*
X172925000Y-102081250D01*
G75*
G02*
X172656250Y-102350000I-268750J0D01*
G01*
X172118750Y-102350000D01*
G75*
G02*
X171850000Y-102081250I0J268750D01*
G01*
G37*
G36*
G01*
X169975000Y-102081250D02*
X169975000Y-101118750D01*
G75*
G02*
X170243750Y-100850000I268750J0D01*
G01*
X170781250Y-100850000D01*
G75*
G02*
X171050000Y-101118750I0J-268750D01*
G01*
X171050000Y-102081250D01*
G75*
G02*
X170781250Y-102350000I-268750J0D01*
G01*
X170243750Y-102350000D01*
G75*
G02*
X169975000Y-102081250I0J268750D01*
G01*
G37*
%TD*%
%TO.C,R6*%
G36*
G01*
X174723000Y-102081250D02*
X174723000Y-101118750D01*
G75*
G02*
X174991750Y-100850000I268750J0D01*
G01*
X175529250Y-100850000D01*
G75*
G02*
X175798000Y-101118750I0J-268750D01*
G01*
X175798000Y-102081250D01*
G75*
G02*
X175529250Y-102350000I-268750J0D01*
G01*
X174991750Y-102350000D01*
G75*
G02*
X174723000Y-102081250I0J268750D01*
G01*
G37*
G36*
G01*
X176598000Y-102081250D02*
X176598000Y-101118750D01*
G75*
G02*
X176866750Y-100850000I268750J0D01*
G01*
X177404250Y-100850000D01*
G75*
G02*
X177673000Y-101118750I0J-268750D01*
G01*
X177673000Y-102081250D01*
G75*
G02*
X177404250Y-102350000I-268750J0D01*
G01*
X176866750Y-102350000D01*
G75*
G02*
X176598000Y-102081250I0J268750D01*
G01*
G37*
%TD*%
D20*
%TO.C,U1*%
X166370000Y-96520000D03*
X168910000Y-96520000D03*
X171450000Y-96520000D03*
X173990000Y-96520000D03*
X173990000Y-88900000D03*
X171450000Y-88900000D03*
X168910000Y-88900000D03*
X166370000Y-88900000D03*
%TD*%
M02*
