%TF.GenerationSoftware,KiCad,Pcbnew,(5.1.6)-1*%
%TF.CreationDate,2020-09-23T17:10:44+08:00*%
%TF.ProjectId,Power Meter,506f7765-7220-44d6-9574-65722e6b6963,rev?*%
%TF.SameCoordinates,Original*%
%TF.FileFunction,Legend,Top*%
%TF.FilePolarity,Positive*%
%FSLAX46Y46*%
G04 Gerber Fmt 4.6, Leading zero omitted, Abs format (unit mm)*
G04 Created by KiCad (PCBNEW (5.1.6)-1) date 2020-09-23 17:10:44*
%MOMM*%
%LPD*%
G01*
G04 APERTURE LIST*
%ADD10C,0.120000*%
%ADD11C,0.152400*%
%ADD12C,0.203200*%
%ADD13C,0.150000*%
%ADD14C,0.015000*%
G04 APERTURE END LIST*
D10*
%TO.C,A1*%
X148875000Y-76200000D02*
X148875000Y-73660000D01*
X148875000Y-73660000D02*
X146205000Y-73660000D01*
X146205000Y-76200000D02*
X146205000Y-114430000D01*
X146205000Y-70990000D02*
X146205000Y-73660000D01*
X161575000Y-73660000D02*
X164245000Y-73660000D01*
X161575000Y-73660000D02*
X161575000Y-111760000D01*
X161575000Y-111760000D02*
X164245000Y-111760000D01*
X148875000Y-76200000D02*
X146205000Y-76200000D01*
X148875000Y-76200000D02*
X148875000Y-111760000D01*
X148875000Y-111760000D02*
X146205000Y-111760000D01*
X146205000Y-114430000D02*
X164245000Y-114430000D01*
X164245000Y-114430000D02*
X164245000Y-70990000D01*
X164245000Y-70990000D02*
X146205000Y-70990000D01*
%TO.C,D1*%
X142550000Y-91025000D02*
X142550000Y-93710000D01*
X144470000Y-91025000D02*
X142550000Y-91025000D01*
X144470000Y-93710000D02*
X144470000Y-91025000D01*
%TO.C,J1*%
X132150000Y-102020000D02*
X132650000Y-101520000D01*
X133150000Y-102020000D02*
X132150000Y-102020000D01*
X132650000Y-101520000D02*
X133150000Y-102020000D01*
X141210000Y-84595000D02*
X135650000Y-84595000D01*
X141210000Y-101325000D02*
X135650000Y-101325000D01*
X141210000Y-101325000D02*
X141210000Y-84595000D01*
X125240000Y-84595000D02*
X132850000Y-84595000D01*
X125240000Y-101325000D02*
X132850000Y-101325000D01*
X125240000Y-101325000D02*
X125240000Y-84595000D01*
%TO.C,J2*%
X194130000Y-100630000D02*
X194130000Y-100130000D01*
X193390000Y-100630000D02*
X194130000Y-100630000D01*
X190253000Y-88857000D02*
X190299000Y-88904000D01*
X187955000Y-86560000D02*
X187991000Y-86595000D01*
X190469000Y-88664000D02*
X190504000Y-88699000D01*
X188161000Y-86355000D02*
X188207000Y-86402000D01*
X190253000Y-93937000D02*
X190299000Y-93984000D01*
X187955000Y-91640000D02*
X187991000Y-91675000D01*
X190469000Y-93744000D02*
X190504000Y-93779000D01*
X188161000Y-91435000D02*
X188207000Y-91482000D01*
X183969000Y-85030000D02*
X193890000Y-85030000D01*
X183969000Y-100390000D02*
X193890000Y-100390000D01*
X193890000Y-100390000D02*
X193890000Y-85030000D01*
X183969000Y-100390000D02*
X183969000Y-85030000D01*
X186929000Y-100390000D02*
X186929000Y-85030000D01*
X191830000Y-100390000D02*
X191830000Y-85030000D01*
X193330000Y-100390000D02*
X193330000Y-85030000D01*
X190910000Y-87630000D02*
G75*
G03*
X190910000Y-87630000I-1680000J0D01*
G01*
X190910000Y-92710000D02*
G75*
G03*
X190910000Y-92710000I-1680000J0D01*
G01*
X190764756Y-97106682D02*
G75*
G02*
X190910000Y-97790000I-1534756J-683318D01*
G01*
X188546958Y-96254574D02*
G75*
G02*
X189914000Y-96255000I683042J-1535426D01*
G01*
X187694574Y-98473042D02*
G75*
G02*
X187695000Y-97106000I1535426J683042D01*
G01*
X189913042Y-99325426D02*
G75*
G02*
X188546000Y-99325000I-683042J1535426D01*
G01*
X190910253Y-97761195D02*
G75*
G02*
X190765000Y-98474000I-1680253J-28805D01*
G01*
%TO.C,Q1*%
X179830000Y-96830000D02*
X178370000Y-96830000D01*
X179830000Y-93670000D02*
X177670000Y-93670000D01*
X179830000Y-93670000D02*
X179830000Y-94600000D01*
X179830000Y-96830000D02*
X179830000Y-95900000D01*
%TO.C,Q2*%
X179830000Y-91750000D02*
X179830000Y-90820000D01*
X179830000Y-88590000D02*
X179830000Y-89520000D01*
X179830000Y-88590000D02*
X177670000Y-88590000D01*
X179830000Y-91750000D02*
X178370000Y-91750000D01*
%TO.C,R1*%
X166826422Y-84530000D02*
X167343578Y-84530000D01*
X166826422Y-83110000D02*
X167343578Y-83110000D01*
%TO.C,R2*%
X171191422Y-83110000D02*
X171708578Y-83110000D01*
X171191422Y-84530000D02*
X171708578Y-84530000D01*
%TO.C,R3*%
X175939422Y-84530000D02*
X176456578Y-84530000D01*
X175939422Y-83110000D02*
X176456578Y-83110000D01*
%TO.C,R4*%
X166826422Y-100890000D02*
X167343578Y-100890000D01*
X166826422Y-102310000D02*
X167343578Y-102310000D01*
%TO.C,R5*%
X171191422Y-100890000D02*
X171708578Y-100890000D01*
X171191422Y-102310000D02*
X171708578Y-102310000D01*
%TO.C,R6*%
X175939422Y-102310000D02*
X176456578Y-102310000D01*
X175939422Y-100890000D02*
X176456578Y-100890000D01*
D11*
%TO.C,U1*%
X175260000Y-95250000D02*
X175260000Y-97790000D01*
X165100000Y-95250000D02*
X165100000Y-93726000D01*
X165100000Y-95250000D02*
X175260000Y-95250000D01*
X175260000Y-90170000D02*
X175260000Y-95250000D01*
D12*
X165100000Y-90170000D02*
X165100000Y-91694000D01*
D11*
X165100000Y-90170000D02*
X175260000Y-90170000D01*
X165100000Y-97790000D02*
X165100000Y-95250000D01*
X165100000Y-87630000D02*
X165100000Y-90170000D01*
X175260000Y-87630000D02*
X175260000Y-90170000D01*
X165100000Y-97790000D02*
X175260000Y-97790000D01*
X175260000Y-87630000D02*
X165100000Y-87630000D01*
X165100000Y-93726000D02*
G75*
G03*
X165100000Y-91694000I0J1016000D01*
G01*
%TO.C,M3*%
D13*
X187150476Y-76262380D02*
X187150476Y-75262380D01*
X187483809Y-75976666D01*
X187817142Y-75262380D01*
X187817142Y-76262380D01*
X188198095Y-75262380D02*
X188817142Y-75262380D01*
X188483809Y-75643333D01*
X188626666Y-75643333D01*
X188721904Y-75690952D01*
X188769523Y-75738571D01*
X188817142Y-75833809D01*
X188817142Y-76071904D01*
X188769523Y-76167142D01*
X188721904Y-76214761D01*
X188626666Y-76262380D01*
X188340952Y-76262380D01*
X188245714Y-76214761D01*
X188198095Y-76167142D01*
X187150476Y-101662380D02*
X187150476Y-100662380D01*
X187483809Y-101376666D01*
X187817142Y-100662380D01*
X187817142Y-101662380D01*
X188198095Y-100662380D02*
X188817142Y-100662380D01*
X188483809Y-101043333D01*
X188626666Y-101043333D01*
X188721904Y-101090952D01*
X188769523Y-101138571D01*
X188817142Y-101233809D01*
X188817142Y-101471904D01*
X188769523Y-101567142D01*
X188721904Y-101614761D01*
X188626666Y-101662380D01*
X188340952Y-101662380D01*
X188245714Y-101614761D01*
X188198095Y-101567142D01*
X130000476Y-101662380D02*
X130000476Y-100662380D01*
X130333809Y-101376666D01*
X130667142Y-100662380D01*
X130667142Y-101662380D01*
X131048095Y-100662380D02*
X131667142Y-100662380D01*
X131333809Y-101043333D01*
X131476666Y-101043333D01*
X131571904Y-101090952D01*
X131619523Y-101138571D01*
X131667142Y-101233809D01*
X131667142Y-101471904D01*
X131619523Y-101567142D01*
X131571904Y-101614761D01*
X131476666Y-101662380D01*
X131190952Y-101662380D01*
X131095714Y-101614761D01*
X131048095Y-101567142D01*
X130000476Y-76262380D02*
X130000476Y-75262380D01*
X130333809Y-75976666D01*
X130667142Y-75262380D01*
X130667142Y-76262380D01*
X131048095Y-75262380D02*
X131667142Y-75262380D01*
X131333809Y-75643333D01*
X131476666Y-75643333D01*
X131571904Y-75690952D01*
X131619523Y-75738571D01*
X131667142Y-75833809D01*
X131667142Y-76071904D01*
X131619523Y-76167142D01*
X131571904Y-76214761D01*
X131476666Y-76262380D01*
X131190952Y-76262380D01*
X131095714Y-76214761D01*
X131048095Y-76167142D01*
%TO.C,A1*%
X154510714Y-70016666D02*
X154986904Y-70016666D01*
X154415476Y-70302380D02*
X154748809Y-69302380D01*
X155082142Y-70302380D01*
X155939285Y-70302380D02*
X155367857Y-70302380D01*
X155653571Y-70302380D02*
X155653571Y-69302380D01*
X155558333Y-69445238D01*
X155463095Y-69540476D01*
X155367857Y-69588095D01*
%TO.C,D1*%
X145612380Y-93448095D02*
X144612380Y-93448095D01*
X144612380Y-93210000D01*
X144660000Y-93067142D01*
X144755238Y-92971904D01*
X144850476Y-92924285D01*
X145040952Y-92876666D01*
X145183809Y-92876666D01*
X145374285Y-92924285D01*
X145469523Y-92971904D01*
X145564761Y-93067142D01*
X145612380Y-93210000D01*
X145612380Y-93448095D01*
X145612380Y-91924285D02*
X145612380Y-92495714D01*
X145612380Y-92210000D02*
X144612380Y-92210000D01*
X144755238Y-92305238D01*
X144850476Y-92400476D01*
X144898095Y-92495714D01*
%TO.C,J1*%
X123302380Y-93293333D02*
X124016666Y-93293333D01*
X124159523Y-93340952D01*
X124254761Y-93436190D01*
X124302380Y-93579047D01*
X124302380Y-93674285D01*
X124302380Y-92293333D02*
X124302380Y-92864761D01*
X124302380Y-92579047D02*
X123302380Y-92579047D01*
X123445238Y-92674285D01*
X123540476Y-92769523D01*
X123588095Y-92864761D01*
%TO.C,J2*%
X182422380Y-93043333D02*
X183136666Y-93043333D01*
X183279523Y-93090952D01*
X183374761Y-93186190D01*
X183422380Y-93329047D01*
X183422380Y-93424285D01*
X182517619Y-92614761D02*
X182470000Y-92567142D01*
X182422380Y-92471904D01*
X182422380Y-92233809D01*
X182470000Y-92138571D01*
X182517619Y-92090952D01*
X182612857Y-92043333D01*
X182708095Y-92043333D01*
X182850952Y-92090952D01*
X183422380Y-92662380D01*
X183422380Y-92043333D01*
%TO.C,Q1*%
X178974761Y-93297619D02*
X178879523Y-93250000D01*
X178784285Y-93154761D01*
X178641428Y-93011904D01*
X178546190Y-92964285D01*
X178450952Y-92964285D01*
X178498571Y-93202380D02*
X178403333Y-93154761D01*
X178308095Y-93059523D01*
X178260476Y-92869047D01*
X178260476Y-92535714D01*
X178308095Y-92345238D01*
X178403333Y-92250000D01*
X178498571Y-92202380D01*
X178689047Y-92202380D01*
X178784285Y-92250000D01*
X178879523Y-92345238D01*
X178927142Y-92535714D01*
X178927142Y-92869047D01*
X178879523Y-93059523D01*
X178784285Y-93154761D01*
X178689047Y-93202380D01*
X178498571Y-93202380D01*
X179879523Y-93202380D02*
X179308095Y-93202380D01*
X179593809Y-93202380D02*
X179593809Y-92202380D01*
X179498571Y-92345238D01*
X179403333Y-92440476D01*
X179308095Y-92488095D01*
%TO.C,Q2*%
X178974761Y-88217619D02*
X178879523Y-88170000D01*
X178784285Y-88074761D01*
X178641428Y-87931904D01*
X178546190Y-87884285D01*
X178450952Y-87884285D01*
X178498571Y-88122380D02*
X178403333Y-88074761D01*
X178308095Y-87979523D01*
X178260476Y-87789047D01*
X178260476Y-87455714D01*
X178308095Y-87265238D01*
X178403333Y-87170000D01*
X178498571Y-87122380D01*
X178689047Y-87122380D01*
X178784285Y-87170000D01*
X178879523Y-87265238D01*
X178927142Y-87455714D01*
X178927142Y-87789047D01*
X178879523Y-87979523D01*
X178784285Y-88074761D01*
X178689047Y-88122380D01*
X178498571Y-88122380D01*
X179308095Y-87217619D02*
X179355714Y-87170000D01*
X179450952Y-87122380D01*
X179689047Y-87122380D01*
X179784285Y-87170000D01*
X179831904Y-87217619D01*
X179879523Y-87312857D01*
X179879523Y-87408095D01*
X179831904Y-87550952D01*
X179260476Y-88122380D01*
X179879523Y-88122380D01*
%TO.C,R1*%
X166918333Y-82622380D02*
X166585000Y-82146190D01*
X166346904Y-82622380D02*
X166346904Y-81622380D01*
X166727857Y-81622380D01*
X166823095Y-81670000D01*
X166870714Y-81717619D01*
X166918333Y-81812857D01*
X166918333Y-81955714D01*
X166870714Y-82050952D01*
X166823095Y-82098571D01*
X166727857Y-82146190D01*
X166346904Y-82146190D01*
X167870714Y-82622380D02*
X167299285Y-82622380D01*
X167585000Y-82622380D02*
X167585000Y-81622380D01*
X167489761Y-81765238D01*
X167394523Y-81860476D01*
X167299285Y-81908095D01*
%TO.C,R2*%
X171283333Y-82622380D02*
X170950000Y-82146190D01*
X170711904Y-82622380D02*
X170711904Y-81622380D01*
X171092857Y-81622380D01*
X171188095Y-81670000D01*
X171235714Y-81717619D01*
X171283333Y-81812857D01*
X171283333Y-81955714D01*
X171235714Y-82050952D01*
X171188095Y-82098571D01*
X171092857Y-82146190D01*
X170711904Y-82146190D01*
X171664285Y-81717619D02*
X171711904Y-81670000D01*
X171807142Y-81622380D01*
X172045238Y-81622380D01*
X172140476Y-81670000D01*
X172188095Y-81717619D01*
X172235714Y-81812857D01*
X172235714Y-81908095D01*
X172188095Y-82050952D01*
X171616666Y-82622380D01*
X172235714Y-82622380D01*
%TO.C,R3*%
X176031333Y-82622380D02*
X175698000Y-82146190D01*
X175459904Y-82622380D02*
X175459904Y-81622380D01*
X175840857Y-81622380D01*
X175936095Y-81670000D01*
X175983714Y-81717619D01*
X176031333Y-81812857D01*
X176031333Y-81955714D01*
X175983714Y-82050952D01*
X175936095Y-82098571D01*
X175840857Y-82146190D01*
X175459904Y-82146190D01*
X176364666Y-81622380D02*
X176983714Y-81622380D01*
X176650380Y-82003333D01*
X176793238Y-82003333D01*
X176888476Y-82050952D01*
X176936095Y-82098571D01*
X176983714Y-82193809D01*
X176983714Y-82431904D01*
X176936095Y-82527142D01*
X176888476Y-82574761D01*
X176793238Y-82622380D01*
X176507523Y-82622380D01*
X176412285Y-82574761D01*
X176364666Y-82527142D01*
%TO.C,R4*%
X166918333Y-100402380D02*
X166585000Y-99926190D01*
X166346904Y-100402380D02*
X166346904Y-99402380D01*
X166727857Y-99402380D01*
X166823095Y-99450000D01*
X166870714Y-99497619D01*
X166918333Y-99592857D01*
X166918333Y-99735714D01*
X166870714Y-99830952D01*
X166823095Y-99878571D01*
X166727857Y-99926190D01*
X166346904Y-99926190D01*
X167775476Y-99735714D02*
X167775476Y-100402380D01*
X167537380Y-99354761D02*
X167299285Y-100069047D01*
X167918333Y-100069047D01*
%TO.C,R5*%
X171283333Y-100402380D02*
X170950000Y-99926190D01*
X170711904Y-100402380D02*
X170711904Y-99402380D01*
X171092857Y-99402380D01*
X171188095Y-99450000D01*
X171235714Y-99497619D01*
X171283333Y-99592857D01*
X171283333Y-99735714D01*
X171235714Y-99830952D01*
X171188095Y-99878571D01*
X171092857Y-99926190D01*
X170711904Y-99926190D01*
X172188095Y-99402380D02*
X171711904Y-99402380D01*
X171664285Y-99878571D01*
X171711904Y-99830952D01*
X171807142Y-99783333D01*
X172045238Y-99783333D01*
X172140476Y-99830952D01*
X172188095Y-99878571D01*
X172235714Y-99973809D01*
X172235714Y-100211904D01*
X172188095Y-100307142D01*
X172140476Y-100354761D01*
X172045238Y-100402380D01*
X171807142Y-100402380D01*
X171711904Y-100354761D01*
X171664285Y-100307142D01*
%TO.C,R6*%
X176031333Y-100402380D02*
X175698000Y-99926190D01*
X175459904Y-100402380D02*
X175459904Y-99402380D01*
X175840857Y-99402380D01*
X175936095Y-99450000D01*
X175983714Y-99497619D01*
X176031333Y-99592857D01*
X176031333Y-99735714D01*
X175983714Y-99830952D01*
X175936095Y-99878571D01*
X175840857Y-99926190D01*
X175459904Y-99926190D01*
X176888476Y-99402380D02*
X176698000Y-99402380D01*
X176602761Y-99450000D01*
X176555142Y-99497619D01*
X176459904Y-99640476D01*
X176412285Y-99830952D01*
X176412285Y-100211904D01*
X176459904Y-100307142D01*
X176507523Y-100354761D01*
X176602761Y-100402380D01*
X176793238Y-100402380D01*
X176888476Y-100354761D01*
X176936095Y-100307142D01*
X176983714Y-100211904D01*
X176983714Y-99973809D01*
X176936095Y-99878571D01*
X176888476Y-99830952D01*
X176793238Y-99783333D01*
X176602761Y-99783333D01*
X176507523Y-99830952D01*
X176459904Y-99878571D01*
X176412285Y-99973809D01*
%TO.C,U1*%
D14*
X163060296Y-92797486D02*
X163060296Y-93607896D01*
X163107967Y-93703238D01*
X163155639Y-93750909D01*
X163250981Y-93798580D01*
X163441665Y-93798580D01*
X163537008Y-93750909D01*
X163584679Y-93703238D01*
X163632350Y-93607896D01*
X163632350Y-92797486D01*
X164633444Y-93798580D02*
X164061390Y-93798580D01*
X164347417Y-93798580D02*
X164347417Y-92797486D01*
X164252075Y-92940500D01*
X164156733Y-93035842D01*
X164061390Y-93083513D01*
%TD*%
M02*
