%TF.GenerationSoftware,KiCad,Pcbnew,(5.1.6)-1*%
%TF.CreationDate,2020-09-23T17:10:44+08:00*%
%TF.ProjectId,Power Meter,506f7765-7220-44d6-9574-65722e6b6963,rev?*%
%TF.SameCoordinates,Original*%
%TF.FileFunction,Soldermask,Bot*%
%TF.FilePolarity,Negative*%
%FSLAX46Y46*%
G04 Gerber Fmt 4.6, Leading zero omitted, Abs format (unit mm)*
G04 Created by KiCad (PCBNEW (5.1.6)-1) date 2020-09-23 17:10:44*
%MOMM*%
%LPD*%
G01*
G04 APERTURE LIST*
%ADD10C,3.300000*%
%ADD11O,1.700000X1.700000*%
%ADD12R,1.700000X1.700000*%
%ADD13R,1.600000X1.600000*%
%ADD14C,1.600000*%
%ADD15C,3.350000*%
%ADD16C,2.400000*%
%ADD17R,2.700000X2.700000*%
%ADD18C,2.700000*%
%ADD19C,1.700200*%
G04 APERTURE END LIST*
D10*
%TO.C,M3*%
X187960000Y-80010000D03*
%TD*%
%TO.C,M3*%
X187960000Y-105410000D03*
%TD*%
%TO.C,M3*%
X130810000Y-105410000D03*
%TD*%
%TO.C,M3*%
X130810000Y-80010000D03*
%TD*%
D11*
%TO.C,A1*%
X162845000Y-110490000D03*
X147605000Y-110490000D03*
X162845000Y-74930000D03*
X147605000Y-107950000D03*
X162845000Y-77470000D03*
X147605000Y-105410000D03*
X162845000Y-80010000D03*
X147605000Y-102870000D03*
X162845000Y-82550000D03*
X147605000Y-100330000D03*
X162845000Y-85090000D03*
X147605000Y-97790000D03*
X162845000Y-87630000D03*
X147605000Y-95250000D03*
X162845000Y-90170000D03*
X147605000Y-92710000D03*
X162845000Y-92710000D03*
X147605000Y-90170000D03*
X162845000Y-95250000D03*
X147605000Y-87630000D03*
X162845000Y-97790000D03*
X147605000Y-85090000D03*
X162845000Y-100330000D03*
X147605000Y-82550000D03*
X162845000Y-102870000D03*
X147605000Y-80010000D03*
X162845000Y-105410000D03*
X147605000Y-77470000D03*
X162845000Y-107950000D03*
D12*
X147605000Y-74930000D03*
%TD*%
D13*
%TO.C,J1*%
X133350000Y-96520000D03*
D14*
X133350000Y-94488000D03*
X133350000Y-92456000D03*
X133350000Y-90424000D03*
X135130000Y-95504000D03*
X135130000Y-93472000D03*
X135130000Y-91440000D03*
X135130000Y-89408000D03*
D15*
X130810000Y-99310000D03*
X130810000Y-86610000D03*
D16*
X134240000Y-84830000D03*
X134240000Y-101090000D03*
D14*
X139950000Y-99820000D03*
X139950000Y-97530000D03*
X139950000Y-88390000D03*
X139950000Y-86100000D03*
%TD*%
D17*
%TO.C,J2*%
X189230000Y-97790000D03*
D18*
X189230000Y-92710000D03*
X189230000Y-87630000D03*
%TD*%
D19*
%TO.C,U1*%
X166370000Y-96520000D03*
X168910000Y-96520000D03*
X171450000Y-96520000D03*
X173990000Y-96520000D03*
X173990000Y-88900000D03*
X171450000Y-88900000D03*
X168910000Y-88900000D03*
X166370000Y-88900000D03*
%TD*%
M02*
