%TF.GenerationSoftware,KiCad,Pcbnew,(5.1.6)-1*%
%TF.CreationDate,2020-09-23T17:10:44+08:00*%
%TF.ProjectId,Power Meter,506f7765-7220-44d6-9574-65722e6b6963,rev?*%
%TF.SameCoordinates,Original*%
%TF.FileFunction,Paste,Top*%
%TF.FilePolarity,Positive*%
%FSLAX46Y46*%
G04 Gerber Fmt 4.6, Leading zero omitted, Abs format (unit mm)*
G04 Created by KiCad (PCBNEW (5.1.6)-1) date 2020-09-23 17:10:44*
%MOMM*%
%LPD*%
G01*
G04 APERTURE LIST*
%ADD10R,0.900000X0.800000*%
G04 APERTURE END LIST*
%TO.C,D1*%
G36*
G01*
X143053750Y-91285000D02*
X143966250Y-91285000D01*
G75*
G02*
X144210000Y-91528750I0J-243750D01*
G01*
X144210000Y-92016250D01*
G75*
G02*
X143966250Y-92260000I-243750J0D01*
G01*
X143053750Y-92260000D01*
G75*
G02*
X142810000Y-92016250I0J243750D01*
G01*
X142810000Y-91528750D01*
G75*
G02*
X143053750Y-91285000I243750J0D01*
G01*
G37*
G36*
G01*
X143053750Y-93160000D02*
X143966250Y-93160000D01*
G75*
G02*
X144210000Y-93403750I0J-243750D01*
G01*
X144210000Y-93891250D01*
G75*
G02*
X143966250Y-94135000I-243750J0D01*
G01*
X143053750Y-94135000D01*
G75*
G02*
X142810000Y-93891250I0J243750D01*
G01*
X142810000Y-93403750D01*
G75*
G02*
X143053750Y-93160000I243750J0D01*
G01*
G37*
%TD*%
D10*
%TO.C,Q1*%
X178070000Y-94300000D03*
X178070000Y-96200000D03*
X180070000Y-95250000D03*
%TD*%
%TO.C,Q2*%
X180070000Y-90170000D03*
X178070000Y-91120000D03*
X178070000Y-89220000D03*
%TD*%
%TO.C,R1*%
G36*
G01*
X165660000Y-84276250D02*
X165660000Y-83363750D01*
G75*
G02*
X165903750Y-83120000I243750J0D01*
G01*
X166391250Y-83120000D01*
G75*
G02*
X166635000Y-83363750I0J-243750D01*
G01*
X166635000Y-84276250D01*
G75*
G02*
X166391250Y-84520000I-243750J0D01*
G01*
X165903750Y-84520000D01*
G75*
G02*
X165660000Y-84276250I0J243750D01*
G01*
G37*
G36*
G01*
X167535000Y-84276250D02*
X167535000Y-83363750D01*
G75*
G02*
X167778750Y-83120000I243750J0D01*
G01*
X168266250Y-83120000D01*
G75*
G02*
X168510000Y-83363750I0J-243750D01*
G01*
X168510000Y-84276250D01*
G75*
G02*
X168266250Y-84520000I-243750J0D01*
G01*
X167778750Y-84520000D01*
G75*
G02*
X167535000Y-84276250I0J243750D01*
G01*
G37*
%TD*%
%TO.C,R2*%
G36*
G01*
X171900000Y-84276250D02*
X171900000Y-83363750D01*
G75*
G02*
X172143750Y-83120000I243750J0D01*
G01*
X172631250Y-83120000D01*
G75*
G02*
X172875000Y-83363750I0J-243750D01*
G01*
X172875000Y-84276250D01*
G75*
G02*
X172631250Y-84520000I-243750J0D01*
G01*
X172143750Y-84520000D01*
G75*
G02*
X171900000Y-84276250I0J243750D01*
G01*
G37*
G36*
G01*
X170025000Y-84276250D02*
X170025000Y-83363750D01*
G75*
G02*
X170268750Y-83120000I243750J0D01*
G01*
X170756250Y-83120000D01*
G75*
G02*
X171000000Y-83363750I0J-243750D01*
G01*
X171000000Y-84276250D01*
G75*
G02*
X170756250Y-84520000I-243750J0D01*
G01*
X170268750Y-84520000D01*
G75*
G02*
X170025000Y-84276250I0J243750D01*
G01*
G37*
%TD*%
%TO.C,R3*%
G36*
G01*
X174773000Y-84276250D02*
X174773000Y-83363750D01*
G75*
G02*
X175016750Y-83120000I243750J0D01*
G01*
X175504250Y-83120000D01*
G75*
G02*
X175748000Y-83363750I0J-243750D01*
G01*
X175748000Y-84276250D01*
G75*
G02*
X175504250Y-84520000I-243750J0D01*
G01*
X175016750Y-84520000D01*
G75*
G02*
X174773000Y-84276250I0J243750D01*
G01*
G37*
G36*
G01*
X176648000Y-84276250D02*
X176648000Y-83363750D01*
G75*
G02*
X176891750Y-83120000I243750J0D01*
G01*
X177379250Y-83120000D01*
G75*
G02*
X177623000Y-83363750I0J-243750D01*
G01*
X177623000Y-84276250D01*
G75*
G02*
X177379250Y-84520000I-243750J0D01*
G01*
X176891750Y-84520000D01*
G75*
G02*
X176648000Y-84276250I0J243750D01*
G01*
G37*
%TD*%
%TO.C,R4*%
G36*
G01*
X167535000Y-102056250D02*
X167535000Y-101143750D01*
G75*
G02*
X167778750Y-100900000I243750J0D01*
G01*
X168266250Y-100900000D01*
G75*
G02*
X168510000Y-101143750I0J-243750D01*
G01*
X168510000Y-102056250D01*
G75*
G02*
X168266250Y-102300000I-243750J0D01*
G01*
X167778750Y-102300000D01*
G75*
G02*
X167535000Y-102056250I0J243750D01*
G01*
G37*
G36*
G01*
X165660000Y-102056250D02*
X165660000Y-101143750D01*
G75*
G02*
X165903750Y-100900000I243750J0D01*
G01*
X166391250Y-100900000D01*
G75*
G02*
X166635000Y-101143750I0J-243750D01*
G01*
X166635000Y-102056250D01*
G75*
G02*
X166391250Y-102300000I-243750J0D01*
G01*
X165903750Y-102300000D01*
G75*
G02*
X165660000Y-102056250I0J243750D01*
G01*
G37*
%TD*%
%TO.C,R5*%
G36*
G01*
X171900000Y-102056250D02*
X171900000Y-101143750D01*
G75*
G02*
X172143750Y-100900000I243750J0D01*
G01*
X172631250Y-100900000D01*
G75*
G02*
X172875000Y-101143750I0J-243750D01*
G01*
X172875000Y-102056250D01*
G75*
G02*
X172631250Y-102300000I-243750J0D01*
G01*
X172143750Y-102300000D01*
G75*
G02*
X171900000Y-102056250I0J243750D01*
G01*
G37*
G36*
G01*
X170025000Y-102056250D02*
X170025000Y-101143750D01*
G75*
G02*
X170268750Y-100900000I243750J0D01*
G01*
X170756250Y-100900000D01*
G75*
G02*
X171000000Y-101143750I0J-243750D01*
G01*
X171000000Y-102056250D01*
G75*
G02*
X170756250Y-102300000I-243750J0D01*
G01*
X170268750Y-102300000D01*
G75*
G02*
X170025000Y-102056250I0J243750D01*
G01*
G37*
%TD*%
%TO.C,R6*%
G36*
G01*
X174773000Y-102056250D02*
X174773000Y-101143750D01*
G75*
G02*
X175016750Y-100900000I243750J0D01*
G01*
X175504250Y-100900000D01*
G75*
G02*
X175748000Y-101143750I0J-243750D01*
G01*
X175748000Y-102056250D01*
G75*
G02*
X175504250Y-102300000I-243750J0D01*
G01*
X175016750Y-102300000D01*
G75*
G02*
X174773000Y-102056250I0J243750D01*
G01*
G37*
G36*
G01*
X176648000Y-102056250D02*
X176648000Y-101143750D01*
G75*
G02*
X176891750Y-100900000I243750J0D01*
G01*
X177379250Y-100900000D01*
G75*
G02*
X177623000Y-101143750I0J-243750D01*
G01*
X177623000Y-102056250D01*
G75*
G02*
X177379250Y-102300000I-243750J0D01*
G01*
X176891750Y-102300000D01*
G75*
G02*
X176648000Y-102056250I0J243750D01*
G01*
G37*
%TD*%
M02*
