M48
; DRILL file {KiCad (5.1.6)-1} date 09/23/20 17:10:32
; FORMAT={-:-/ absolute / inch / decimal}
; #@! TF.CreationDate,2020-09-23T17:10:32+08:00
; #@! TF.GenerationSoftware,Kicad,Pcbnew,(5.1.6)-1
; #@! TF.FileFunction,Plated,1,2,PTH
FMAT,2
INCH
T1C0.0157
T2C0.0320
T3C0.0350
T4C0.0394
T5C0.0512
T6C0.0618
%
G90
G05
T1
X6.4724Y-3.3856
T2
X6.55Y-3.5
X6.55Y-3.8
X6.65Y-3.5
X6.65Y-3.8
X6.75Y-3.5
X6.75Y-3.8
X6.85Y-3.5
X6.85Y-3.8
T3
X5.25Y-3.56
X5.25Y-3.64
X5.25Y-3.72
X5.25Y-3.8
X5.3201Y-3.52
X5.3201Y-3.6
X5.3201Y-3.68
X5.3201Y-3.76
X5.5098Y-3.3898
X5.5098Y-3.4799
X5.5098Y-3.8398
X5.5098Y-3.9299
T4
X5.8112Y-2.95
X5.8112Y-3.05
X5.8112Y-3.15
X5.8112Y-3.25
X5.8112Y-3.35
X5.8112Y-3.45
X5.8112Y-3.55
X5.8112Y-3.65
X5.8112Y-3.75
X5.8112Y-3.85
X5.8112Y-3.95
X5.8112Y-4.05
X5.8112Y-4.15
X5.8112Y-4.25
X5.8112Y-4.35
X6.4112Y-2.95
X6.4112Y-3.05
X6.4112Y-3.15
X6.4112Y-3.25
X6.4112Y-3.35
X6.4112Y-3.45
X6.4112Y-3.55
X6.4112Y-3.65
X6.4112Y-3.75
X6.4112Y-3.85
X6.4112Y-3.95
X6.4112Y-4.05
X6.4112Y-4.15
X6.4112Y-4.25
X6.4112Y-4.35
T5
X7.45Y-3.45
X7.45Y-3.65
X7.45Y-3.85
T6
X5.285Y-3.3398
X5.285Y-3.9799
T0
M30
